<?xml version="1.0" standalone="no"?>
<!DOCTYPE svg PUBLIC "-//W3C//DTD SVG 20010904//EN"
 "http://www.w3.org/TR/2001/REC-SVG-20010904/DTD/svg10.dtd">
<svg version="1.0" xmlns="http://www.w3.org/2000/svg"
 width="4096.000000pt" height="4096.000000pt" viewBox="0 0 4096.000000 4096.000000"
 preserveAspectRatio="xMidYMid meet">
<metadata>
Created by potrace 1.11, written by Peter Selinger 2001-2013
</metadata>
<g transform="translate(0.000000,4096.000000) scale(0.100000,-0.100000)"
fill="#000000" stroke="none">
<path d="M0 20480 l0 -20480 20480 0 20480 0 0 20480 0 20480 -20480 0 -20480
0 0 -20480z m21205 14965 c2013 -128 3737 -538 5445 -1293 215 -95 835 -402
1085 -537 1098 -595 2079 -1309 2975 -2166 339 -325 401 -395 461 -524 58
-125 73 -192 73 -335 0 -100 -4 -141 -22 -203 -62 -218 -208 -395 -404 -491
-236 -116 -535 -102 -752 36 -28 18 -148 127 -267 243 -472 461 -805 746
-1304 1120 -464 347 -926 642 -1469 939 -341 187 -886 452 -1236 601 -1966
838 -4330 1216 -6495 1040 -762 -62 -1601 -206 -2190 -376 -1258 -362 -2432
-853 -3415 -1427 -1871 -1093 -3406 -2558 -4600 -4392 -563 -866 -912 -1565
-1275 -2560 -275 -752 -514 -1658 -611 -2315 -32 -222 -97 -360 -228 -491 -92
-91 -186 -151 -296 -188 -435 -144 -886 103 -1000 548 -31 122 -27 232 19 507
87 514 209 1028 396 1671 159 544 448 1313 720 1913 525 1159 1394 2480 2334
3550 577 655 1210 1264 1855 1784 1628 1310 3381 2212 5551 2855 793 235 1736
400 2720 475 117 9 417 26 630 35 194 8 1077 -4 1300 -19z m11735 -7049 c170
-31 286 -92 411 -216 90 -90 117 -131 289 -445 606 -1103 1075 -2309 1424
-3656 176 -681 327 -1609 390 -2404 37 -467 41 -568 41 -1195 0 -681 -5 -802
-56 -1340 -59 -628 -85 -802 -240 -1575 -189 -943 -468 -1849 -826 -2678 -51
-120 -118 -280 -147 -355 -355 -907 -1113 -2207 -1851 -3172 -890 -1163 -1937
-2174 -3153 -3042 -479 -342 -1242 -821 -1404 -882 -204 -76 -453 -57 -644 50
-403 224 -519 751 -249 1129 68 96 149 162 322 265 938 555 1739 1151 2463
1831 153 144 533 526 665 669 663 717 1259 1541 1807 2495 278 485 448 829
613 1244 41 102 108 263 149 358 335 771 611 1689 776 2578 17 94 44 235 60
315 53 267 79 470 124 960 138 1481 -1 3116 -385 4545 -301 1118 -719 2176
-1220 3087 -248 450 -248 450 -256 638 -4 105 -2 139 16 213 37 154 105 270
224 383 178 170 418 243 657 200z m-12180 -406 c1069 -44 2031 -282 2985 -740
1287 -616 2411 -1638 3158 -2867 623 -1026 979 -2139 1073 -3355 20 -254 22
-794 5 -1038 -87 -1235 -447 -2374 -1078 -3413 -576 -949 -1385 -1784 -2318
-2392 -1086 -709 -2297 -1113 -3615 -1206 -392 -28 -993 -10 -1413 41 -1780
219 -3425 1072 -4636 2405 -1075 1183 -1735 2641 -1910 4220 -34 300 -44 495
-44 835 0 340 10 535 44 835 202 1817 1063 3501 2419 4729 1341 1214 3034
1897 4835 1949 50 2 126 4 170 5 44 1 190 -3 325 -8z m-14364 -7791 c250 -35
470 -194 586 -424 50 -98 67 -179 88 -409 75 -823 229 -1602 561 -2846 38
-140 42 -166 41 -270 0 -227 -83 -418 -247 -567 -147 -134 -321 -202 -518
-203 -127 0 -225 23 -347 82 -93 45 -115 61 -200 147 -159 160 -173 197 -370
976 -206 814 -339 1492 -414 2115 -57 463 -68 678 -42 801 54 253 255 479 501
564 119 41 235 52 361 34z m1892 -5955 c159 -33 304 -114 414 -233 36 -38 102
-136 174 -259 918 -1547 2144 -2907 3599 -3992 948 -707 2197 -1396 3220
-1778 195 -73 982 -322 1320 -417 623 -176 1379 -313 2130 -384 647 -62 990
-76 1565 -62 938 22 1503 75 2122 200 191 39 274 46 373 31 170 -26 301 -90
427 -209 171 -162 246 -350 236 -595 -4 -101 -10 -136 -35 -208 -73 -212 -226
-376 -433 -465 -161 -69 -872 -187 -1425 -237 -480 -44 -756 -56 -1380 -63
-552 -6 -685 -2 -1165 33 -587 42 -1199 117 -1640 200 -756 143 -1059 219
-1835 464 -154 49 -361 113 -460 144 -663 205 -1694 684 -2521 1172 -1013 597
-1762 1146 -2596 1901 -198 179 -779 757 -949 943 -739 812 -1325 1600 -1873
2518 -146 243 -179 328 -192 485 -12 141 31 326 107 453 44 75 188 219 261
263 172 100 367 134 556 95z"/>
<path d="M20190 24984 c-19 -2 -91 -9 -160 -15 -69 -6 -203 -24 -299 -40
-1153 -192 -2178 -820 -2878 -1763 -476 -640 -762 -1371 -860 -2194 -25 -209
-25 -775 0 -984 126 -1053 565 -1967 1296 -2699 732 -731 1646 -1170 2699
-1296 209 -25 775 -25 984 0 548 65 1043 211 1513 443 1287 639 2198 1858
2439 3264 52 301 61 412 61 780 0 368 -9 479 -61 780 -194 1133 -825 2155
-1758 2847 -638 474 -1374 763 -2186 859 -127 15 -700 28 -790 18z"/>
</g>
</svg>
